<svg aria-hidden="true" style="width:0;height:0;position:absolute;overflow:hidden" xmlns="http://www.w3.org/2000/svg"><defs><symbol id="icon-Icon-Phone" viewBox="0 0 32 32"><path fill="#fff" style="fill:var(--color1,#fff)" d="M26.68 20.507a15.26 15.26 0 0 1-4.707-.747 1.303 1.303 0 0 0-1.347.32l-2.093 2.627c-3.773-1.8-7.307-5.2-9.187-9.107l2.6-2.213a1.36 1.36 0 0 0 .32-1.36 14.882 14.882 0 0 1-.747-4.707c0-.72-.6-1.32-1.32-1.32H5.586c-.72 0-1.587.32-1.587 1.32C3.999 17.707 14.306 28 26.679 28c.947 0 1.32-.84 1.32-1.573v-4.6c0-.72-.6-1.32-1.32-1.32z"/></symbol><symbol id="icon-Icon-Close" viewBox="0 0 32 32"><path fill="#fff" style="fill:var(--color1,#fff)" d="M25.592 8.556a1.52 1.52 0 0 0-2.149-2.149l-7.444 7.444-7.444-7.444a1.52 1.52 0 0 0-2.149 2.149L13.85 16l-7.444 7.444a1.52 1.52 0 0 0 2.149 2.149l7.444-7.444 7.444 7.444a1.52 1.52 0 0 0 2.149-2.149L18.148 16l7.444-7.444z"/></symbol><symbol id="icon-Burger-menu" viewBox="0 0 32 32"><path fill="#fff" style="fill:var(--color1,#fff)" d="M4 22.667C4 23.403 4.597 24 5.333 24h21.333a1.333 1.333 0 0 0 0-2.666H5.333c-.736 0-1.333.597-1.333 1.333zM4 16c0 .736.597 1.333 1.333 1.333h21.333a1.333 1.333 0 0 0 0-2.666H5.333C4.597 14.667 4 15.264 4 16zm1.333-8a1.333 1.333 0 0 0 0 2.666h21.333a1.333 1.333 0 0 0 0-2.666H5.333z"/></symbol><symbol id="icon-Burger-menu-hover" viewBox="0 0 32 32"><path fill="#fff" style="fill:var(--color1,#fff)" d="M4 22.667C4 23.403 4.597 24 5.333 24h9.333a1.333 1.333 0 0 0 0-2.666H5.333c-.736 0-1.333.597-1.333 1.333zM4 16c0 .736.597 1.333 1.333 1.333h21.333a1.333 1.333 0 0 0 0-2.666H5.333C4.597 14.667 4 15.264 4 16zm1.333-8a1.333 1.333 0 0 0 0 2.666H20A1.333 1.333 0 0 0 20 8H5.333z"/></symbol><symbol id="icon-Logo-Miami" viewBox="0 0 54 32"><path fill="#fff" style="fill:var(--color1,#fff)" d="m27.2 9.907 9.643-5.98.357-.012-3.063 9.685-2.074-.287 1.797-5.396-6.539 3.878h-.245l-2.033-1.206.713-1.542 1.442.86z"/><path fill="#fff" style="fill:var(--color1,#fff)" d="M27.135.6h.215l3.261 6.651-1.751 1.042-1.641-3.482-1.943 3.945.001.001-.732 1.535-4.007-2.376 1.798 5.396-2.074.287-3.063-9.685.357.012 6.005 3.757L27.134.599zM8.208 19.958l3.816-4.838h3.125V25.2h-2.923v-6.437l-4.018 4.925h-.144l-4.018-4.925V25.2H1.209V15.12H4.42l3.787 4.838zM19.846 15.12V25.2h-2.938V15.12h2.938zM30.897 25.2h3.125l-5.213-10.08h-3.211L20.385 25.2h3.082l.95-1.93h5.53l.95 1.93zm-5.472-4.018 1.757-3.571 1.742 3.571h-3.499zM41.536 19.958l3.816-4.838h3.125V25.2h-2.923v-6.437l-4.018 4.925h-.144l-4.018-4.925V25.2h-2.837V15.12h3.211l3.787 4.838zM53.174 25.2V15.12h-2.938V25.2h2.938zM1.617 28.98c0 1.004.697 1.524 1.752 1.524.634 0 1.16-.208 1.44-.697l.416.208c-.343.546-.978.894-1.867.894-1.357 0-2.189-.749-2.189-1.929s.832-1.929 2.205-1.929c.874 0 1.508.354 1.851.894l-.416.208c-.286-.484-.806-.697-1.44-.697-1.056 0-1.752.52-1.752 1.524zM10.736 28.98c0 1.186-.832 1.929-2.215 1.929s-2.215-.744-2.215-1.929c0-1.186.832-1.929 2.215-1.929s2.215.744 2.215 1.929zm-3.983 0c0 .978.697 1.524 1.768 1.524s1.768-.546 1.768-1.524-.697-1.524-1.768-1.524-1.768.546-1.768 1.524zM15.677 27.16v3l-2.969-3h-.473v3.64h.426v-3.084l3.058 3.084h.385v-3.64h-.426zM17.868 27.16h1.768c1.331 0 2.184.702 2.184 1.82s-.853 1.82-2.184 1.82h-1.768v-3.64zm.436 3.234h1.3c1.035 0 1.768-.484 1.768-1.414s-.733-1.414-1.768-1.414h-1.3v2.829zM25.263 30.909c1.383 0 2.215-.744 2.215-1.929s-.832-1.929-2.215-1.929-2.215.744-2.215 1.929.832 1.929 2.215 1.929zm0-.405c-1.071 0-1.768-.546-1.768-1.524s.697-1.524 1.768-1.524c1.071 0 1.768.546 1.768 1.524s-.697 1.524-1.768 1.524zM33.204 28.59l1.929 2.21h-.556l-1.726-1.955-1.212.946V30.8h-.437v-3.64h.437v2.132l2.756-2.132h.624l-1.815 1.43zM36.779 27.16h-.437v3.64h.437v-3.64zM41.99 30.16v-3h.426v3.64h-.385l-3.058-3.084V30.8h-.426v-3.64h.473l2.969 3zM48.19 28.907H46.1v.406h1.654v.473c-.27.504-.863.718-1.586.718-1.113 0-1.81-.515-1.81-1.524s.692-1.524 1.778-1.524c.66 0 1.144.208 1.472.619l.38-.265c-.364-.426-.962-.759-1.851-.759-1.394 0-2.226.744-2.226 1.929s.832 1.929 2.241 1.929c1.009 0 1.737-.426 2.038-.993v-1.009zM49.89 28.112c0 .452.686.546 1.544.614 1.108.088 1.877.302 1.877 1.019 0 .671-.681 1.165-1.867 1.165-.796 0-1.56-.25-2.127-.749l.307-.328c.53.468 1.118.671 1.846.671.879 0 1.394-.276 1.394-.728 0-.442-.536-.551-1.518-.634-.972-.083-1.903-.296-1.903-1.014 0-.686.863-1.076 1.836-1.076.79 0 1.44.276 1.862.65l-.343.291c-.354-.348-.889-.53-1.498-.536-.65-.005-1.409.177-1.409.655z"/></symbol></defs></svg>