<svg aria-hidden="true" style="position: absolute; width: 0; height: 0; overflow: hidden;" version="1.1" xmlns="http://www.w3.org/2000/svg" xmlns:xlink="http://www.w3.org/1999/xlink">
<defs>
<symbol id="icon-tel" viewBox="0 0 32 32">
<path fill="#fff" style="fill: var(--color1, #fff)" d="M30.24 22.009c-2.187 0-4.302-0.356-6.276-0.996-0.166-0.058-0.358-0.092-0.558-0.092-0.485 0-0.923 0.198-1.238 0.518l-0 0-2.791 3.502c-5.031-2.4-9.742-6.933-12.249-12.142l3.467-2.951c0.48-0.498 0.622-1.191 0.427-1.813-0.658-1.973-0.996-4.089-0.996-6.276 0-0.96-0.8-1.76-1.76-1.76h-6.151c-0.96 0-2.116 0.427-2.116 1.76 0 16.516 13.742 30.24 30.24 30.24 1.262 0 1.76-1.12 1.76-2.098v-6.133c0-0.96-0.8-1.76-1.76-1.76z"></path>
</symbol>
<symbol id="icon-button-m-h" viewBox="0 0 48 32">
<path fill="#fff" style="fill: var(--color1, #fff)" d="M0 29.333c0 1.473 1.194 2.667 2.667 2.667v0h18.667c1.473 0 2.667-1.194 2.667-2.667s-1.194-2.667-2.667-2.667v0h-18.667c-1.473 0-2.667 1.194-2.667 2.667v0zM0 16c0 1.473 1.194 2.667 2.667 2.667v0h42.667c1.473 0 2.667-1.194 2.667-2.667s-1.194-2.667-2.667-2.667v0h-42.667c-1.473 0-2.667 1.194-2.667 2.667v0zM2.667 0c-1.473 0-2.667 1.194-2.667 2.667s1.194 2.667 2.667 2.667v0h29.333c1.473 0 2.667-1.194 2.667-2.667s-1.194-2.667-2.667-2.667v0h-29.333z"></path>
</symbol>
<symbol id="icon-close" viewBox="0 0 32 32">
<path fill="#fff" style="fill: var(--color1, #fff)" d="M30.388 4.834c0.45-0.418 0.731-1.013 0.731-1.673 0-1.259-1.021-2.28-2.28-2.28-0.661 0-1.256 0.281-1.672 0.73l-0.001 0.001-11.166 11.166-11.166-11.166c-0.418-0.45-1.013-0.731-1.673-0.731-1.259 0-2.28 1.021-2.28 2.28 0 0.661 0.281 1.256 0.73 1.672l0.001 0.001 11.166 11.166-11.166 11.166c-0.45 0.418-0.731 1.013-0.731 1.673 0 1.259 1.021 2.28 2.28 2.28 0.661 0 1.256-0.281 1.672-0.73l0.001-0.001 11.166-11.166 11.166 11.166c0.418 0.45 1.013 0.731 1.673 0.731 1.259 0 2.28-1.021 2.28-2.28 0-0.661-0.281-1.256-0.73-1.672l-0.001-0.001-11.166-11.166 11.166-11.166z"></path>
</symbol>
<symbol id="icon-button-m" viewBox="0 0 48 32">
<path fill="#fff" style="fill: var(--color1, #fff)" d="M0 29.333c0 1.473 1.194 2.667 2.667 2.667v0h42.667c1.473 0 2.667-1.194 2.667-2.667s-1.194-2.667-2.667-2.667v0h-42.667c-1.473 0-2.667 1.194-2.667 2.667v0zM0 16c0 1.473 1.194 2.667 2.667 2.667v0h42.667c1.473 0 2.667-1.194 2.667-2.667s-1.194-2.667-2.667-2.667v0h-42.667c-1.473 0-2.667 1.194-2.667 2.667v0zM2.667 0c-1.473 0-2.667 1.194-2.667 2.667s1.194 2.667 2.667 2.667v0h42.667c1.473 0 2.667-1.194 2.667-2.667s-1.194-2.667-2.667-2.667v0h-42.667z"></path>
</symbol>
<symbol id="icon-corona-up" viewBox="0 0 55 32">
<path fill="#fff" style="fill: var(--color1, #fff)" d="M27.429 9.877l10.019-6.213 0.371-0.012-3.182 10.063-2.154-0.298 1.867-5.606-6.793 4.029h-0.254l-2.112-1.253 0.741-1.602 1.498 0.893z"></path>
<path fill="#fff" style="fill: var(--color1, #fff)" d="M27.361 0.208h0.224l3.388 6.91-1.819 1.083-1.705-3.618-2.019 4.099 0.001 0.001-0.761 1.595-4.163-2.469 1.868 5.606-2.155 0.298-3.182-10.063 0.371 0.012 6.239 3.904 3.712-7.36zM7.697 20.32l3.965-5.027h3.247v10.473h-3.037v-6.688l-4.174 5.117h-0.15l-4.174-5.117v6.688h-2.947v-10.473h3.336l3.935 5.027zM19.788 15.293v10.473h-3.052v-10.473h3.052z"></path>
<path fill="#fff" style="fill: var(--color1, #fff)" d="M31.27 25.766h3.247l-5.416-10.473h-3.336l-5.416 10.473h3.202l0.987-2.005h5.745l0.987 2.005zM25.585 21.592l1.825-3.71 1.81 3.71h-3.636z"></path>
<path fill="#fff" style="fill: var(--color1, #fff)" d="M42.324 20.32l3.965-5.027h3.247v10.473h-3.037v-6.688l-4.174 5.117h-0.15l-4.174-5.117v6.688h-2.947v-10.473h3.336l3.935 5.027zM54.415 25.766v-10.473h-3.052v10.473h3.052zM0.849 29.694c0 1.043 0.724 1.583 1.82 1.583 0.66 0 1.205-0.216 1.497-0.724l0.432 0.216c-0.357 0.567-1.016 0.929-1.94 0.929-1.41 0-2.275-0.778-2.275-2.004s0.864-2.004 2.291-2.004c0.908 0 1.567 0.367 1.923 0.929l-0.432 0.216c-0.297-0.502-0.837-0.724-1.497-0.724-1.097 0-1.821 0.54-1.821 1.583z"></path>
<path fill="#fff" style="fill: var(--color1, #fff)" d="M10.323 29.694c0 1.232-0.864 2.004-2.301 2.004s-2.301-0.773-2.301-2.004c0-1.232 0.864-2.004 2.301-2.004s2.302 0.773 2.302 2.004zM6.185 29.694c0 1.016 0.724 1.583 1.837 1.583s1.837-0.567 1.837-1.583-0.724-1.583-1.837-1.583-1.837 0.567-1.837 1.583z"></path>
<path fill="#fff" style="fill: var(--color1, #fff)" d="M15.456 27.803v3.117l-3.084-3.117h-0.492v3.782h0.443v-3.204l3.176 3.204h0.4v-3.782h-0.443z"></path>
<path fill="#fff" style="fill: var(--color1, #fff)" d="M17.733 27.803h1.837c1.383 0 2.269 0.729 2.269 1.891s-0.886 1.891-2.269 1.891h-1.837v-3.782zM18.186 31.163h1.351c1.075 0 1.837-0.502 1.837-1.47s-0.762-1.47-1.837-1.47h-1.351v2.939zM25.416 31.698c1.437 0 2.302-0.773 2.302-2.004s-0.864-2.004-2.302-2.004-2.302 0.773-2.302 2.004c0 1.232 0.864 2.004 2.302 2.004zM25.416 31.276c-1.113 0-1.837-0.567-1.837-1.583s0.724-1.583 1.837-1.583c1.113 0 1.837 0.567 1.837 1.583s-0.724 1.583-1.837 1.583z"></path>
<path fill="#fff" style="fill: var(--color1, #fff)" d="M33.666 29.288l2.004 2.296h-0.578l-1.794-2.031-1.259 0.983v1.048h-0.453v-3.782h0.454v2.215l2.863-2.215h0.648l-1.886 1.486zM37.381 27.803h-0.454v3.782h0.454v-3.782zM42.795 30.92v-3.117h0.443v3.782h-0.4l-3.177-3.204v3.204h-0.443v-3.782h0.492l3.085 3.117zM49.236 29.618h-2.172v0.421h1.718v0.492c-0.281 0.524-0.897 0.746-1.648 0.746-1.156 0-1.88-0.535-1.88-1.583s0.719-1.583 1.848-1.583c0.686 0 1.189 0.216 1.529 0.643l0.394-0.276c-0.378-0.443-0.999-0.789-1.923-0.789-1.448 0-2.312 0.773-2.312 2.004s0.864 2.004 2.329 2.004c1.048 0 1.804-0.443 2.118-1.032v-1.048zM51.003 28.791c0 0.47 0.713 0.567 1.605 0.637 1.151 0.092 1.95 0.313 1.95 1.059 0 0.697-0.708 1.21-1.94 1.21-0.827 0-1.621-0.259-2.21-0.778l0.319-0.34c0.551 0.486 1.162 0.697 1.918 0.697 0.913 0 1.448-0.286 1.448-0.756 0-0.459-0.556-0.573-1.578-0.659-1.010-0.086-1.977-0.308-1.977-1.053 0-0.713 0.897-1.118 1.907-1.118 0.821 0 1.497 0.286 1.934 0.675l-0.357 0.303c-0.367-0.362-0.924-0.551-1.556-0.556-0.675-0.005-1.464 0.184-1.464 0.681z"></path>
</symbol>
<symbol id="icon-corona" viewBox="0 0 32 32">
<path fill="#0075ff" style="fill: var(--color2, #0075ff)" d="M16 12.924l-12.857 7.973-0.476 0.016 4.084-12.913 2.765 0.383-2.397 7.195 8.719-5.171h0.325l2.711 1.608-0.951 2.056-1.923-1.147zM16.087 25.333h-0.287l-4.349-8.868 2.336-1.389 2.187 4.643 2.592-5.261h-0.003l0.976-2.048 5.343 3.168-2.397-7.195 2.767-0.383 4.083 12.913-0.476-0.016-8.007-5.009-4.764 9.445z"></path>
</symbol>
</defs>
</svg>
