<svg aria-hidden="true" style="position: absolute; width: 0; height: 0; overflow: hidden;" version="1.1" xmlns="http://www.w3.org/2000/svg" xmlns:xlink="http://www.w3.org/1999/xlink">
<defs>
<symbol id="icon-Icon-Phone" viewBox="0 0 32 32">
<path fill="#fff" style="fill: var(--color1, #fff)" d="M26.68 20.507c-1.64 0-3.227-0.267-4.707-0.747-0.467-0.16-0.987-0.040-1.347 0.32l-2.093 2.627c-3.773-1.8-7.307-5.2-9.187-9.107l2.6-2.213c0.36-0.373 0.467-0.893 0.32-1.36-0.493-1.48-0.747-3.067-0.747-4.707 0-0.72-0.6-1.32-1.32-1.32h-4.613c-0.72 0-1.587 0.32-1.587 1.32 0 12.387 10.307 22.68 22.68 22.68 0.947 0 1.32-0.84 1.32-1.573v-4.6c0-0.72-0.6-1.32-1.32-1.32z"></path>
</symbol>
<symbol id="icon-Icon-Close" viewBox="0 0 32 32">
<path fill="#fff" style="fill: var(--color1, #fff)" d="M25.592 8.556c0.593-0.593 0.593-1.555 0-2.149s-1.555-0.593-2.149 0l-7.444 7.444-7.444-7.444c-0.593-0.593-1.555-0.593-2.149 0s-0.593 1.555 0 2.149l7.444 7.444-7.444 7.444c-0.593 0.593-0.593 1.555 0 2.149s1.555 0.593 2.149 0l7.444-7.444 7.444 7.444c0.593 0.593 1.555 0.593 2.149 0s0.593-1.555 0-2.149l-7.444-7.444 7.444-7.444z"></path>
</symbol>
<symbol id="icon-Icon-Burger-menu-1" viewBox="0 0 32 32">
<path fill="#fff" style="fill: var(--color1, #fff)" d="M4 22.667c0 0.736 0.597 1.333 1.333 1.333h21.333c0.736 0 1.333-0.597 1.333-1.333s-0.597-1.333-1.333-1.333h-21.333c-0.736 0-1.333 0.597-1.333 1.333zM4 16c0 0.736 0.597 1.333 1.333 1.333h21.333c0.736 0 1.333-0.597 1.333-1.333s-0.597-1.333-1.333-1.333h-21.333c-0.736 0-1.333 0.597-1.333 1.333zM5.333 8c-0.736 0-1.333 0.597-1.333 1.333s0.597 1.333 1.333 1.333h21.333c0.736 0 1.333-0.597 1.333-1.333s-0.597-1.333-1.333-1.333h-21.333z"></path>
</symbol>
<symbol id="icon-Logo-Miami" viewBox="0 0 54 32">
<path fill="#fff" style="fill: var(--color1, #fff)" d="M27.2 9.907l9.643-5.98 0.357-0.012-3.063 9.685-2.074-0.287 1.797-5.396-6.539 3.878h-0.245l-2.033-1.206 0.713-1.542 1.442 0.86z"></path>
<path fill="#fff" style="fill: var(--color1, #fff)" d="M27.135 0.6l0.215 0 3.261 6.651-1.751 1.042-1.641-3.482-1.943 3.945 0.001 0.001-0.732 1.535-4.007-2.376 1.798 5.396-2.074 0.287-3.063-9.685 0.357 0.012 6.005 3.757 3.573-7.084z"></path>
<path fill="#fff" style="fill: var(--color1, #fff)" d="M8.208 19.958l3.816-4.838h3.125v10.080h-2.923v-6.437l-4.018 4.925h-0.144l-4.018-4.925v6.437h-2.837v-10.080h3.211l3.787 4.838z"></path>
<path fill="#fff" style="fill: var(--color1, #fff)" d="M19.846 15.12v10.080h-2.938v-10.080h2.938z"></path>
<path fill="#fff" style="fill: var(--color1, #fff)" d="M30.897 25.2h3.125l-5.213-10.080h-3.211l-5.213 10.080h3.082l0.95-1.93h5.53l0.95 1.93zM25.425 21.182l1.757-3.571 1.742 3.571h-3.499z"></path>
<path fill="#fff" style="fill: var(--color1, #fff)" d="M41.536 19.958l3.816-4.838h3.125v10.080h-2.923v-6.437l-4.018 4.925h-0.144l-4.018-4.925v6.437h-2.837v-10.080h3.211l3.787 4.838z"></path>
<path fill="#fff" style="fill: var(--color1, #fff)" d="M53.174 25.2v-10.080h-2.938v10.080h2.938z"></path>
<path fill="#fff" style="fill: var(--color1, #fff)" d="M1.617 28.98c0 1.004 0.697 1.524 1.752 1.524 0.634 0 1.16-0.208 1.44-0.697l0.416 0.208c-0.343 0.546-0.978 0.894-1.867 0.894-1.357 0-2.189-0.749-2.189-1.929s0.832-1.929 2.205-1.929c0.874 0 1.508 0.354 1.851 0.894l-0.416 0.208c-0.286-0.484-0.806-0.697-1.44-0.697-1.056 0-1.752 0.52-1.752 1.524z"></path>
<path fill="#fff" style="fill: var(--color1, #fff)" d="M10.736 28.98c0 1.186-0.832 1.929-2.215 1.929s-2.215-0.744-2.215-1.929c0-1.186 0.832-1.929 2.215-1.929s2.215 0.744 2.215 1.929zM6.753 28.98c0 0.978 0.697 1.524 1.768 1.524s1.768-0.546 1.768-1.524c0-0.978-0.697-1.524-1.768-1.524s-1.768 0.546-1.768 1.524z"></path>
<path fill="#fff" style="fill: var(--color1, #fff)" d="M15.677 27.16v3l-2.969-3h-0.473v3.64h0.426v-3.084l3.058 3.084h0.385v-3.64h-0.426z"></path>
<path fill="#fff" style="fill: var(--color1, #fff)" d="M17.868 27.16h1.768c1.331 0 2.184 0.702 2.184 1.82s-0.853 1.82-2.184 1.82h-1.768v-3.64zM18.304 30.394h1.3c1.035 0 1.768-0.484 1.768-1.414s-0.733-1.414-1.768-1.414h-1.3v2.829z"></path>
<path fill="#fff" style="fill: var(--color1, #fff)" d="M25.263 30.909c1.383 0 2.215-0.744 2.215-1.929s-0.832-1.929-2.215-1.929c-1.383 0-2.215 0.744-2.215 1.929s0.832 1.929 2.215 1.929zM25.263 30.504c-1.071 0-1.768-0.546-1.768-1.524s0.697-1.524 1.768-1.524c1.071 0 1.768 0.546 1.768 1.524s-0.697 1.524-1.768 1.524z"></path>
<path fill="#fff" style="fill: var(--color1, #fff)" d="M33.204 28.59l1.929 2.21h-0.556l-1.726-1.955-1.212 0.946v1.009h-0.437v-3.64h0.437v2.132l2.756-2.132h0.624l-1.815 1.43z"></path>
<path fill="#fff" style="fill: var(--color1, #fff)" d="M36.779 27.16h-0.437v3.64h0.437v-3.64z"></path>
<path fill="#fff" style="fill: var(--color1, #fff)" d="M41.99 30.16v-3h0.426v3.64h-0.385l-3.058-3.084v3.084h-0.426v-3.64h0.473l2.969 3z"></path>
<path fill="#fff" style="fill: var(--color1, #fff)" d="M48.19 28.907h-2.090v0.406h1.654v0.473c-0.27 0.504-0.863 0.718-1.586 0.718-1.113 0-1.81-0.515-1.81-1.524s0.692-1.524 1.778-1.524c0.66 0 1.144 0.208 1.472 0.619l0.38-0.265c-0.364-0.426-0.962-0.759-1.851-0.759-1.394 0-2.226 0.744-2.226 1.929s0.832 1.929 2.241 1.929c1.009 0 1.737-0.426 2.038-0.993v-1.009z"></path>
<path fill="#fff" style="fill: var(--color1, #fff)" d="M49.89 28.112c0 0.452 0.686 0.546 1.544 0.614 1.108 0.088 1.877 0.302 1.877 1.019 0 0.671-0.681 1.165-1.867 1.165-0.796 0-1.56-0.25-2.127-0.749l0.307-0.328c0.53 0.468 1.118 0.671 1.846 0.671 0.879 0 1.394-0.276 1.394-0.728 0-0.442-0.536-0.551-1.518-0.634-0.972-0.083-1.903-0.296-1.903-1.014 0-0.686 0.863-1.076 1.836-1.076 0.79 0 1.44 0.276 1.862 0.65l-0.343 0.291c-0.354-0.348-0.889-0.53-1.498-0.536-0.65-0.005-1.409 0.177-1.409 0.655z"></path>
</symbol>
</defs>
</svg>
